<svg width="54" height="54" viewBox="0 0 54 54" fill="none" xmlns="http://www.w3.org/2000/svg">
<path d="M27.5 0C12.8644 0 1 11.8644 1 26.5C1 41.1356 12.8644 53 27.5 53C42.1356 53 54 41.1356 54 26.5C54 11.8644 42.1356 0 27.5 0ZM39.0332 38.4587C38.6962 39.0353 38.0898 39.3568 37.4669 39.3569C37.1563 39.3569 36.8418 39.2769 36.5543 39.109C31.7922 36.326 26.2908 35.8787 22.5133 35.9936C18.329 36.1209 15.2604 36.9469 15.2299 36.9553C14.2654 37.2188 13.2686 36.6512 13.004 35.6867C12.7395 34.7224 13.3051 33.7263 14.2692 33.4607C14.4075 33.4226 17.7096 32.5257 22.3014 32.3743C25.0061 32.285 27.6099 32.4735 30.0395 32.9345C33.1167 33.5182 35.9238 34.5429 38.3829 35.98C39.2471 36.4849 39.5381 37.5948 39.0332 38.4587ZM42.4021 31.4616C42.0031 32.1446 41.2848 32.5254 40.5469 32.5255C40.179 32.5255 39.8064 32.4309 39.4658 32.2319C33.8251 28.9353 27.3084 28.4057 22.8341 28.5417C17.8775 28.6925 14.2427 29.6709 14.2066 29.6809C13.0643 29.9925 11.8834 29.3207 11.57 28.1783C11.2567 27.0359 11.9268 25.856 13.0687 25.5414C13.2325 25.4963 17.1438 24.4338 22.583 24.2545C25.787 24.1489 28.8712 24.3721 31.749 24.918C35.3941 25.6095 38.7191 26.8232 41.6319 28.5254C42.6556 29.1235 43.0004 30.4382 42.4021 31.4616ZM44.4732 25.0996C44.0219 25.0996 43.5649 24.9836 43.1471 24.7394C29.7367 16.9022 12.3409 21.5614 12.1668 21.6095C10.7648 21.9958 9.31538 21.1724 8.9292 19.7705C8.54291 18.3685 9.36631 16.919 10.7682 16.5328C10.9691 16.4774 15.7668 15.1743 22.4385 14.9543C26.3687 14.8249 30.1517 15.0986 33.6816 15.7682C38.1527 16.6164 42.2314 18.1051 45.8041 20.1931C47.0595 20.9268 47.4825 22.5392 46.7488 23.7947C46.2593 24.6325 45.3783 25.0996 44.4732 25.0996Z" fill="#00D95F"/>
</svg>
