<svg width="51" height="51" viewBox="0 0 51 51" fill="none" xmlns="http://www.w3.org/2000/svg">
<g clip-path="url(#clip0_746_1709)">
<path fill-rule="evenodd" clip-rule="evenodd" d="M0.318359 25.6548C0.318359 11.6691 11.6604 0.318848 25.6589 0.318848C39.6585 0.318848 50.9995 11.6793 50.9995 25.664C50.9995 39.6497 39.6575 51 25.6589 51H23.6034V50.9086C10.5749 49.8615 0.318359 38.9493 0.318359 25.6548ZM26.2892 46.8806C37.7246 46.5472 46.8886 37.1702 46.8886 25.664C46.8886 13.9461 37.3849 4.42908 25.6589 4.42908C13.932 4.42908 4.42934 13.9381 4.42934 25.6548C4.42934 37.3711 13.9406 46.8806 25.6589 46.8806H26.2892Z" fill="#FF5676"/>
<path fill-rule="evenodd" clip-rule="evenodd" d="M15.3999 7.0897C15.118 7.00101 14.8259 6.90907 14.5215 6.80582L15.8424 2.91351C15.9637 2.95468 16.1822 3.02435 16.4372 3.10568C16.8955 3.25181 17.4718 3.43558 17.8151 3.55937L17.8336 3.56602L17.8519 3.57301C17.9458 3.60892 18.0464 3.647 18.152 3.68692C18.6838 3.88802 19.3398 4.13615 19.8878 4.39241L19.9121 4.40379L20.0207 4.45806C20.2786 4.57829 20.6658 4.76285 20.9883 4.91656C21.1694 5.00286 21.33 5.07944 21.436 5.12945L21.485 5.15261L21.5328 5.17831C21.5438 5.1843 21.5569 5.19127 21.5716 5.19915C21.6827 5.25865 21.89 5.36953 22.0888 5.49103L22.1434 5.52436L22.1588 5.53517C22.1812 5.54822 22.212 5.56566 22.25 5.5868C22.2831 5.60528 22.3151 5.62285 22.347 5.64041C22.3532 5.64385 22.3595 5.6473 22.3657 5.65076C22.3833 5.66043 22.4034 5.67145 22.4213 5.68146L22.4225 5.68216C22.4316 5.68724 22.4549 5.7002 22.4818 5.71588C22.506 5.72983 22.5434 5.75114 22.5901 5.77782C22.733 5.8594 22.964 5.99121 23.1785 6.1168C23.3994 6.24617 23.7366 6.44544 23.9861 6.62036C24.2535 6.78453 24.5473 6.98809 24.743 7.12362C24.7782 7.14804 24.8103 7.17026 24.8384 7.18963C24.9889 7.28124 25.1362 7.38512 25.2387 7.45857C25.3853 7.56365 25.545 7.6827 25.6905 7.79215C25.7578 7.84271 25.8193 7.8891 25.8773 7.93295C25.9546 7.99126 26.0259 8.04507 26.0969 8.09821C26.1555 8.1421 26.2044 8.17827 26.2438 8.20692C26.2633 8.22108 26.2785 8.23195 26.2899 8.24C26.2996 8.24689 26.3042 8.24998 26.3045 8.25014L26.358 8.28585L26.4096 8.32513C28.6782 10.0533 30.6985 12.0836 32.4229 14.3465L32.4245 14.3486L32.4261 14.3507C34.3324 16.8657 35.8374 19.6575 36.8812 22.6285C39.9911 31.3148 39.0765 41.35 34.1887 49.2716L30.69 47.1136C34.9022 40.2868 35.7132 31.5571 33.0089 24.0086L33.0067 24.0024L33.0045 23.9962C32.1036 21.43 30.8026 19.0144 29.1512 16.8351C27.657 14.875 25.9122 13.1195 23.9597 11.6262C23.8516 11.5513 23.7318 11.4624 23.634 11.3891C23.5598 11.3337 23.4727 11.268 23.3868 11.2031C23.3291 11.1596 23.272 11.1165 23.2197 11.0772C23.0786 10.9711 22.9504 10.8757 22.8442 10.7996C22.7496 10.7319 22.7102 10.7068 22.7105 10.7064C22.7101 10.7063 22.7105 10.7064 22.7105 10.7064L22.6498 10.6722L22.5784 10.6238C22.4734 10.5526 22.3799 10.4879 22.2942 10.4286C22.1061 10.2984 21.9554 10.1941 21.8025 10.1033L21.7024 10.0439L21.6096 9.97354C21.6153 9.97789 21.6149 9.97765 21.6068 9.97219C21.5915 9.96205 21.5492 9.93394 21.47 9.88477C21.3657 9.82007 21.2377 9.74365 21.1009 9.66351C20.9069 9.54995 20.7302 9.44914 20.5905 9.3694C20.5253 9.33218 20.4681 9.29956 20.421 9.27239L20.4167 9.26994C20.4095 9.26598 20.3989 9.26004 20.3829 9.25125C20.378 9.24856 20.3726 9.24563 20.3669 9.24246C20.3352 9.22504 20.2928 9.20168 20.2496 9.17768C20.1991 9.14957 20.1378 9.11504 20.0782 9.08012C20.0456 9.06104 19.9848 9.02524 19.9167 8.98106C19.833 8.93117 19.7432 8.88294 19.6362 8.82553C19.6347 8.82466 19.6331 8.82379 19.6315 8.82292C19.5036 8.76241 19.3444 8.68655 19.1755 8.60594C18.8577 8.45437 18.5049 8.28625 18.2602 8.17241L18.2338 8.16015L18.1232 8.10485C17.7351 7.92492 17.2704 7.74877 16.75 7.55144C16.6368 7.50855 16.521 7.46465 16.4028 7.4195C16.082 7.30436 15.7488 7.19953 15.3999 7.0897ZM20.421 9.27239C20.4232 9.27366 20.4247 9.27437 20.4247 9.27437L20.421 9.27239ZM20.421 9.27239C20.4232 9.27366 20.4247 9.27437 20.4247 9.27437L20.421 9.27239Z" fill="#FF5676"/>
<path fill-rule="evenodd" clip-rule="evenodd" d="M24.0551 16.8719C30.259 15.7517 35.984 12.272 39.8996 7.31885L43.1248 9.86756C38.5998 15.5916 31.9943 19.6152 24.7852 20.9168C21.1955 21.564 17.507 21.5859 13.9068 20.9259C10.3166 20.2859 6.85212 18.9971 3.71875 17.1154L5.83547 13.5919C8.53551 15.2133 11.528 16.3274 14.6332 16.8802L14.6386 16.8812L14.6439 16.8822C17.7395 17.4503 20.9308 17.4351 24.0551 16.8719Z" fill="#FF5676"/>
<path fill-rule="evenodd" clip-rule="evenodd" d="M13.0742 46.4952C16.5839 28.5863 34.835 18.6958 49.7615 22.7641L48.6802 26.7297C36.0095 23.2762 20.1495 31.7682 17.1085 47.2855L13.0742 46.4952Z" fill="#FF5676"/>
</g>
<defs>
<clipPath id="clip0_746_1709">
<rect width="51" height="51" rx="4" fill="white"/>
</clipPath>
</defs>
</svg>
