<svg width="50" height="50" viewBox="0 0 50 50" fill="none" xmlns="http://www.w3.org/2000/svg">
<g clip-path="url(#clip0_746_1723)">
<path d="M25.5215 50C39.3286 50 50.5215 38.8071 50.5215 25C50.5215 11.1929 39.3286 0 25.5215 0C11.7144 0 0.521484 11.1929 0.521484 25C0.521484 38.8071 11.7144 50 25.5215 50Z" fill="#FEC327"/>
<path fill-rule="evenodd" clip-rule="evenodd" d="M34.4277 32.8125C34.2715 32.8125 34.1152 32.8125 34.1152 32.9688C33.959 32.9688 33.8027 33.125 33.6465 33.125L33.4902 33.2812L33.1777 33.4375C30.5215 34.5312 27.709 35.1562 25.0527 35.1562C24.8965 35.1562 24.8965 35.1562 24.7402 35.1562C20.6777 35.1562 17.2402 33.2812 13.959 31.4062C13.8027 31.4062 13.6465 31.25 13.6465 31.25C13.4902 31.25 13.334 31.25 13.1777 31.4062C13.0215 31.4062 13.0215 31.5625 13.0215 31.7187C13.0215 31.875 13.1777 32.1875 13.334 32.1875C16.459 35 20.0527 37.5 24.584 37.5H24.8965C27.8652 37.5 31.3027 36.4062 33.8027 34.8437C34.1152 34.6875 34.4277 34.375 34.7402 34.2188C34.8965 34.0625 35.0527 33.9062 35.0527 33.5938C35.209 32.9688 34.7402 32.8125 34.4277 32.8125ZM38.0215 31.25C38.0215 30.9375 38.0215 30.7812 37.8652 30.625C37.709 30.4688 37.709 30.4688 37.5527 30.4688C37.2402 30.3125 36.7715 30.3125 36.1465 30.3125C35.6777 30.3125 35.209 30.3125 34.7402 30.4688L34.2715 30.625L33.959 30.7813C33.6465 30.9375 33.334 31.0938 33.0215 31.25C32.8652 31.4062 32.709 31.5625 32.709 31.7187C32.709 31.875 32.709 32.0312 32.8652 32.1875C33.0215 32.3438 33.1777 32.3438 33.1777 32.3438H33.334C33.6465 32.3438 33.959 32.1875 34.2715 32.1875H35.3652H35.9902H36.1465V32.3438C36.1465 32.6563 35.9902 33.125 35.834 33.5938C35.6777 34.0625 35.5215 34.5312 35.3652 34.8437V35.1562C35.3652 35.3125 35.3652 35.4688 35.5215 35.4688C35.6777 35.625 35.834 35.625 35.834 35.625C35.9902 35.625 36.1465 35.625 36.3027 35.4688C37.5527 34.375 38.0215 32.6563 38.0215 31.5625V31.25ZM26.9277 19.5312C26.1465 19.5312 25.3652 19.6875 24.584 19.6875C23.334 19.8438 22.084 20 20.9902 20.625C18.959 21.4062 17.5527 23.2812 17.5527 25.7812C17.5527 29.0625 19.584 30.625 22.2402 30.625C23.1777 30.625 23.8027 30.4688 24.4277 30.3125C25.5215 30 26.3027 29.375 27.3965 28.2813C28.0215 29.0625 28.1777 29.5312 29.2715 30.3125C29.584 30.4688 29.8965 30.4688 30.0527 30.3125C30.6777 29.6875 31.9277 28.75 32.5527 28.2813C32.8652 28.125 32.709 27.6563 32.5527 27.5C31.9277 26.7188 31.3027 26.0938 31.3027 24.5312V19.5312C31.3027 17.5 31.459 15.4688 29.8965 14.0625C28.6465 12.9688 26.6152 12.5 25.0527 12.5H24.4277C21.6152 12.6562 18.6465 13.9063 18.0215 17.3438C17.8652 17.8125 18.1777 17.9688 18.4902 17.9688L21.6152 18.2812C21.9277 18.2812 22.084 17.9688 22.2402 17.6563C22.5527 16.4063 23.4902 15.7813 24.584 15.7813H24.7402C25.3652 15.7813 26.1465 16.0938 26.459 16.5625C26.9277 17.1875 26.7715 18.125 26.7715 18.9063V19.5312H26.9277ZM26.9277 22.6562C26.9277 23.9062 26.9277 24.8438 26.3027 26.0938C25.9902 26.875 25.209 27.3438 24.584 27.5C24.4277 27.5 24.2715 27.5 24.1152 27.5C22.8652 27.5 22.2402 26.5625 22.2402 25.1563C22.2402 23.4375 23.334 22.5 24.584 22.1875C25.3652 22.0312 26.1465 22.0313 26.9277 22.0313V22.6562Z" fill="white"/>
</g>
<defs>
<clipPath id="clip0_746_1723">
<rect width="50" height="50" rx="4" fill="white"/>
</clipPath>
</defs>
</svg>
