<svg width="48" height="48" viewBox="0 0 48 48" fill="none" xmlns="http://www.w3.org/2000/svg">
<rect width="48" height="48" rx="3.84" fill="#FF4500"/>
<path d="M39 23.7392C39 21.9055 37.5237 20.4173 35.7047 20.4173C34.8084 20.4173 34.0176 20.7628 33.4376 21.3474C31.1968 19.7264 28.0861 18.6634 24.659 18.5305L26.1617 11.435L31.0387 12.4715C31.0914 13.7205 32.1195 14.7303 33.3849 14.7303C34.6766 14.7303 35.7311 13.6673 35.7311 12.3652C35.7311 11.063 34.6766 10 33.3849 10C32.4622 10 31.6714 10.5315 31.3023 11.3287L25.8453 10.1594C25.6872 10.1329 25.529 10.1594 25.3972 10.2392C25.2654 10.3189 25.1863 10.4518 25.1336 10.6112L23.4728 18.5305C19.9666 18.6368 16.8295 19.6732 14.5624 21.3474C13.9824 20.7894 13.1652 20.4173 12.2953 20.4173C10.4763 20.4173 9 21.9055 9 23.7392C9 25.0945 9.79086 26.2372 10.9508 26.7687C10.8981 27.0876 10.8717 27.4331 10.8717 27.7785C10.8717 32.8809 16.7504 37 24.0264 37C31.3023 37 37.181 32.8809 37.181 27.7785C37.181 27.4331 37.1547 27.1142 37.1019 26.7953C38.1828 26.2638 39 25.0945 39 23.7392ZM16.4605 26.1043C16.4605 24.8022 17.5149 23.7392 18.8067 23.7392C20.0984 23.7392 21.1529 24.8022 21.1529 26.1043C21.1529 27.4065 20.0984 28.4695 18.8067 28.4695C17.5149 28.4695 16.4605 27.4065 16.4605 26.1043ZM29.5624 32.3494C27.9543 33.9705 24.8963 34.0768 24 34.0768C23.1037 34.0768 20.0193 33.9439 18.4376 32.3494C18.2004 32.1102 18.2004 31.7116 18.4376 31.4724C18.6749 31.2333 19.0703 31.2333 19.3076 31.4724C20.3093 32.4823 22.471 32.8543 24.0264 32.8543C25.5817 32.8543 27.717 32.4823 28.7452 31.4724C28.9824 31.2333 29.3779 31.2333 29.6151 31.4724C29.7996 31.7382 29.7996 32.1102 29.5624 32.3494ZM29.1406 28.4695C27.8489 28.4695 26.7944 27.4065 26.7944 26.1043C26.7944 24.8022 27.8489 23.7392 29.1406 23.7392C30.4323 23.7392 31.4868 24.8022 31.4868 26.1043C31.4868 27.4065 30.4323 28.4695 29.1406 28.4695Z" fill="white"/>
</svg>
