<svg width="53" height="53" viewBox="0 0 53 53" fill="none" xmlns="http://www.w3.org/2000/svg">
<path d="M45.7727 0H7.22727C3.23576 0 0 3.23576 0 7.22727V45.7727C0 49.7642 3.23576 53 7.22727 53H45.7727C49.7642 53 53 49.7642 53 45.7727V7.22727C53 3.23576 49.7642 0 45.7727 0Z" fill="#1D70FA"/>
<path d="M28.6328 20.0717H36.471V21.9895H28.6328V20.0717Z" fill="white"/>
<path d="M39.5943 30.8489C39.5943 26.8456 36.4414 23.5999 32.555 23.5999C28.6685 23.5999 25.5156 26.8456 25.5156 30.8489C25.5156 34.8523 28.4411 38.0952 32.555 38.0952C35.6823 38.0952 38.3547 36.7422 39.2616 33.4936H35.9609C35.6579 34.0498 35.2068 34.5144 34.656 34.8379C34.1051 35.1615 33.4752 35.3317 32.8336 35.3304C30.9884 35.3304 29.3651 34.0304 29.4617 31.8442H39.5403C39.5943 31.5255 39.5943 31.1956 39.5943 30.8489ZM29.4731 29.426C29.7176 27.6256 31.0112 26.4766 32.572 26.4766C34.1328 26.4766 35.415 27.6256 35.6709 29.426H29.4731Z" fill="white"/>
<path d="M24.3056 31.1537C24.0497 28.3748 20.8541 27.4383 20.8541 27.4383C22.0681 26.8792 23.5152 25.7357 23.501 23.2169C23.4783 19.5825 19.6231 18.8445 18.3836 18.8445H8.31641V37.7486H17.4624C18.7332 37.7486 20.0865 37.5837 21.1583 37.0581C24.0497 35.6603 24.5558 33.9353 24.3056 31.1537ZM12.5468 22.107H16.8739C16.8739 22.107 19.4326 22.0483 19.4326 24.2736C19.4326 26.4989 16.8739 26.4374 16.8739 26.4374H12.5468V22.107ZM17.1298 34.5392H12.5468V29.3701H17.1298C17.1298 29.3701 20.1775 29.3002 20.1775 31.9532C20.1775 34.6063 17.1298 34.5392 17.1298 34.5392Z" fill="white"/>
</svg>
